<?xml version="1.0" encoding="utf-8"?>
<!-- Generator: Adobe Illustrator 19.0.0, SVG Export Plug-In . SVG Version: 6.00 Build 0)  -->
<svg version="1.1" id="Layer_1" xmlns="http://www.w3.org/2000/svg" xmlns:xlink="http://www.w3.org/1999/xlink" x="0px" y="0px"
	 viewBox="-403 205.4 151.2 150.6" style="enable-background:new -403 205.4 151.2 150.6;" xml:space="preserve">
<style type="text/css">
	.st0{fill:#FFFFFF;}
</style>
<title>The Met</title>
<path class="st0" d="M-320.2,274.6V273c-5.1,0-9.4-1.9-9.4-10.4v-21.8h26.1v22.1c0,8.7-4.7,10-9.4,10v1.7h54.3l3-21.9h-1.2
	c-2.9,8.3-11.1,19.7-23.6,19.7h-11.1v-31.7c12.6,0.2,16.2,7.2,18.3,15.5h1.4l-4.2-33.3h-1.2c-0.4,7.9-1.2,15.5-14.3,15.5v-30.7h8.4
	c12.5,0,20.7,11.4,23.6,19.7h1.2l-3-21.9h-51.5v1.7c4.7,0,9.4,1.3,9.4,10v21.4h-26.1v-21.2c0-8.5,4.3-10.4,9.4-10.4v-1.6h-76.2
	l-3,21.9h1.3c2.9-8.3,13.7-20.3,23.2-20.3v55.5c0,7.7-6.1,10.4-11.2,10.4v1.6h23.1V207c15.6,0,21.1,7.6,21.4,18.2v37.3
	c0,7.7-6.1,10.4-11.2,10.4v1.6L-320.2,274.6L-320.2,274.6z"/>
<path class="st0" d="M-390.7,286.8h-12.2v1.6c4.9,0,11.1,2.7,11.1,10.4v45.1c0,7.7-6.1,10.4-11.2,10.4v1.6h25v-1.6
	c-3.9,0-11.1-1.9-11.1-10.4v-42.5l21.8,47.6h1l21.5-50.2v44.9c0,8.7-6.8,10.5-11.1,10.5v1.7h56.2l3-21.9h-1.2
	c-2.9,8.3-11.1,19.7-23.6,19.7h-11V322c12.5,0.2,16.2,7.2,18.2,15.5h1.4l-4.1-33.3h-1.2c-0.4,7.9-1.2,15.4-14.2,15.5V289h6.5
	c15,0,18.7,11.9,19.5,19.8h1.2c1-8.9,4.8-20.1,18.3-20.1V356h23.2v-1.6c-5.1,0-11.2-2.7-11.2-10.4v-55.6c11.8,0,20.3,14.9,22,20.4
	h1.2l-2.5-22h-80c-5-0.2-9.6,2.8-11.4,7.5l-16.1,37.9l-17.8-39.3C-380.9,289.8-385.1,286.8-390.7,286.8z"/>
</svg>
